<svg version="1.1" xmlns="http://www.w3.org/2000/svg" xmlns:xlink="http://www.w3.org/1999/xlink" width="2900" height="2450"><g fill="none" fill-rule="nonzero" stroke="none" stroke-width="none" stroke-linecap="butt" stroke-linejoin="miter" stroke-miterlimit="10" stroke-dasharray="" stroke-dashoffset="0" font-family="sans-serif" font-weight="normal" font-size="11px" text-anchor="start" style="mix-blend-mode: normal"><g fill="#ffffff" stroke="none" stroke-width="1"/><g><rect x="0" y="0" width="2900" height="2450" fill="#ffffff" stroke="none" stroke-width="1"/><text x="624.5093" y="136.79174" fill="#333333" stroke="none" stroke-width="1" font-family="Arial, sans-serif" font-weight="bold" font-size="30" text-anchor="start">By Age Group</text><text x="361.83352" y="64.29174" fill="#333333" stroke="none" stroke-width="1" font-family="Arial, sans-serif" font-weight="normal" font-size="60" text-anchor="start">Unemployment in Mongolia</text><text x="491.45461" y="164.20138" fill="#333333" stroke="none" stroke-width="1" font-family="Arial, sans-serif" font-weight="normal" font-size="16" text-anchor="start">Aside from a low in 2012, youth unemployment remains very high.</text><g fill="#333333" stroke="none" stroke-width="1" font-family="Arial, sans-serif" font-weight="normal" font-size="14" text-anchor="start"><text x="307.48357" y="550.00776">2009</text><text x="419.73357" y="550.00776">2010</text><text x="534.98357" y="550.00776">2011</text><text x="647.48357" y="550.00776">2012</text><text x="761.98357" y="550.00776">2013</text><text x="875.48357" y="550.00776">2014</text><text x="995.73357" y="550.00776">2015</text><text x="1110.48357" y="550.00776">2016</text></g><g fill="#333333" stroke="none" stroke-width="1" font-family="Arial, sans-serif" font-weight="normal" font-size="14" text-anchor="start"><text x="308.74178" y="775.5729">2009</text><text x="420.99178" y="775.5729">2010</text><text x="536.24178" y="775.5729">2011</text><text x="648.74178" y="775.5729">2012</text><text x="763.24178" y="775.5729">2013</text><text x="876.74178" y="775.5729">2014</text><text x="996.99178" y="775.5729">2015</text><text x="1111.74178" y="775.5729">2016</text></g><text x="649.49221" y="609.17527" fill="#333333" stroke="none" stroke-width="1" font-family="Arial, sans-serif" font-weight="bold" font-size="30" text-anchor="start">By Gender</text><text x="380.72805" y="641.88886" fill="#333333" stroke="none" stroke-width="1" font-family="Arial, sans-serif" font-weight="normal" font-size="16" text-anchor="start">While males have a slightly higher unemployment rate, the disparity is much higher by age group.</text><text x="516.33352" y="189.98069" fill="#333333" stroke="none" stroke-width="1" font-family="Arial, sans-serif" font-weight="normal" font-size="16" text-anchor="start">How much of the state budget is allocated to old vs young?</text><g stroke="#ffffff" stroke-width="2"><rect x="266.7297" y="206.12775" width="114.65486" height="27.68073" fill="#e92200"/><rect x="381.38456" y="206.12775" width="114.65486" height="27.68073" fill="#ea4023"/><rect x="496.03942" y="206.12775" width="114.65486" height="27.68073" fill="#ee816e"/><rect x="610.69428" y="206.12775" width="114.65486" height="27.68073" fill="#f2dbd7"/><rect x="725.34915" y="206.12775" width="114.65486" height="27.68073" fill="#ed7d6a"/><rect x="840.00401" y="206.12775" width="114.65486" height="27.68073" fill="#eb4529"/><rect x="954.65887" y="206.12775" width="114.65486" height="27.68073" fill="#ea2e0e"/><rect x="1069.31373" y="206.12775" width="114.65486" height="27.68073" fill="#e92200"/></g><g stroke="#ffffff" stroke-width="2"><rect x="266.7297" y="232.80849" width="114.65486" height="27.68073" fill="#e92200"/><rect x="381.38456" y="232.80849" width="114.65486" height="27.68073" fill="#e92402"/><rect x="496.03942" y="232.80849" width="114.65486" height="27.68073" fill="#ec5e46"/><rect x="610.69428" y="232.80849" width="114.65486" height="27.68073" fill="#eb4e34"/><rect x="725.34915" y="232.80849" width="114.65486" height="27.68073" fill="#eb4a2e"/><rect x="840.00401" y="232.80849" width="114.65486" height="27.68073" fill="#eb492e"/><rect x="954.65887" y="232.80849" width="114.65486" height="27.68073" fill="#eb4428"/><rect x="1069.31373" y="232.80849" width="114.65486" height="27.68073" fill="#e92200"/></g><g stroke="#ffffff" stroke-width="2"><rect x="266.7297" y="259.48922" width="114.65486" height="27.68073" fill="#ef998b"/><rect x="381.38456" y="259.48922" width="114.65486" height="27.68073" fill="#ef9f91"/><rect x="496.03942" y="259.48922" width="114.65486" height="27.68073" fill="#f1c5bd"/><rect x="610.69428" y="259.48922" width="114.65486" height="27.68073" fill="#f1c4bc"/><rect x="725.34915" y="259.48922" width="114.65486" height="27.68073" fill="#f1c7c0"/><rect x="840.00401" y="259.48922" width="114.65486" height="27.68073" fill="#f1c2ba"/><rect x="954.65887" y="259.48922" width="114.65486" height="27.68073" fill="#f1d1cc"/><rect x="1069.31373" y="259.48922" width="114.65486" height="27.68073" fill="#ee8e7d"/></g><g stroke="#ffffff" stroke-width="2"><rect x="266.7297" y="286.16996" width="114.65486" height="27.68073" fill="#f0b9b0"/><rect x="381.38456" y="286.16996" width="114.65486" height="27.68073" fill="#f1cdc7"/><rect x="496.03942" y="286.16996" width="114.65486" height="27.68073" fill="#f3eae9"/><rect x="610.69428" y="286.16996" width="114.65486" height="27.68073" fill="#f3efef"/><rect x="725.34915" y="286.16996" width="114.65486" height="27.68073" fill="#f3eae9"/><rect x="840.00401" y="286.16996" width="114.65486" height="27.68073" fill="#f2e6e4"/><rect x="954.65887" y="286.16996" width="114.65486" height="27.68073" fill="#e9efef"/><rect x="1069.31373" y="286.16996" width="114.65486" height="27.68073" fill="#f1cfca"/></g><g stroke="#ffffff" stroke-width="2"><rect x="266.7297" y="312.85069" width="114.65486" height="27.68073" fill="#f1d1cc"/><rect x="381.38456" y="312.85069" width="114.65486" height="27.68073" fill="#f1d2cd"/><rect x="496.03942" y="312.85069" width="114.65486" height="27.68073" fill="#c3e0e1"/><rect x="610.69428" y="312.85069" width="114.65486" height="27.68073" fill="#f2dfdc"/><rect x="725.34915" y="312.85069" width="114.65486" height="27.68073" fill="#f3f0ef"/><rect x="840.00401" y="312.85069" width="114.65486" height="27.68073" fill="#dfebec"/><rect x="954.65887" y="312.85069" width="114.65486" height="27.68073" fill="#f3efee"/><rect x="1069.31373" y="312.85069" width="114.65486" height="27.68073" fill="#f2deda"/></g><g stroke="#ffffff" stroke-width="2"><rect x="266.7297" y="339.53143" width="114.65486" height="27.68073" fill="#f0aca0"/><rect x="381.38456" y="339.53143" width="114.65486" height="27.68073" fill="#f3eae9"/><rect x="496.03942" y="339.53143" width="114.65486" height="27.68073" fill="#ecf0f1"/><rect x="610.69428" y="339.53143" width="114.65486" height="27.68073" fill="#e6eeee"/><rect x="725.34915" y="339.53143" width="114.65486" height="27.68073" fill="#cde4e5"/><rect x="840.00401" y="339.53143" width="114.65486" height="27.68073" fill="#ddeaeb"/><rect x="954.65887" y="339.53143" width="114.65486" height="27.68073" fill="#c4e0e2"/><rect x="1069.31373" y="339.53143" width="114.65486" height="27.68073" fill="#f2e2e0"/></g><g stroke="#ffffff" stroke-width="2"><rect x="266.7297" y="366.21216" width="114.65486" height="27.68073" fill="#f2dad6"/><rect x="381.38456" y="366.21216" width="114.65486" height="27.68073" fill="#f2dfdc"/><rect x="496.03942" y="366.21216" width="114.65486" height="27.68073" fill="#cde4e5"/><rect x="610.69428" y="366.21216" width="114.65486" height="27.68073" fill="#f2dcd8"/><rect x="725.34915" y="366.21216" width="114.65486" height="27.68073" fill="#eef1f1"/><rect x="840.00401" y="366.21216" width="114.65486" height="27.68073" fill="#b8dbdd"/><rect x="954.65887" y="366.21216" width="114.65486" height="27.68073" fill="#f1f2f2"/><rect x="1069.31373" y="366.21216" width="114.65486" height="27.68073" fill="#f2dcd9"/></g><g stroke="#ffffff" stroke-width="2"><rect x="266.7297" y="392.8929" width="114.65486" height="27.68073" fill="#f3f0ef"/><rect x="381.38456" y="392.8929" width="114.65486" height="27.68073" fill="#cce3e5"/><rect x="496.03942" y="392.8929" width="114.65486" height="27.68073" fill="#bcdcde"/><rect x="610.69428" y="392.8929" width="114.65486" height="27.68073" fill="#e1ebec"/><rect x="725.34915" y="392.8929" width="114.65486" height="27.68073" fill="#e4eded"/><rect x="840.00401" y="392.8929" width="114.65486" height="27.68073" fill="#f3eae8"/><rect x="954.65887" y="392.8929" width="114.65486" height="27.68073" fill="#95cdd0"/><rect x="1069.31373" y="392.8929" width="114.65486" height="27.68073" fill="#f3e9e8"/></g><g stroke="#ffffff" stroke-width="2"><rect x="266.7297" y="419.57363" width="114.65486" height="27.68073" fill="#f3ebea"/><rect x="381.38456" y="419.57363" width="114.65486" height="27.68073" fill="#81c5c9"/><rect x="496.03942" y="419.57363" width="114.65486" height="27.68073" fill="#79c1c5"/><rect x="610.69428" y="419.57363" width="114.65486" height="27.68073" fill="#4dafb5"/><rect x="725.34915" y="419.57363" width="114.65486" height="27.68073" fill="#5cb6bb"/><rect x="840.00401" y="419.57363" width="114.65486" height="27.68073" fill="#99ced1"/><rect x="954.65887" y="419.57363" width="114.65486" height="27.68073" fill="#57b3b9"/><rect x="1069.31373" y="419.57363" width="114.65486" height="27.68073" fill="#8dc9cd"/></g><g fill="#2aa1a8" stroke="#ffffff" stroke-width="2"><rect x="266.7297" y="446.25437" width="114.65486" height="27.68073"/><rect x="381.38456" y="446.25437" width="114.65486" height="27.68073"/><rect x="496.03942" y="446.25437" width="114.65486" height="27.68073"/><rect x="610.69428" y="446.25437" width="114.65486" height="27.68073"/><rect x="725.34915" y="446.25437" width="114.65486" height="27.68073"/><rect x="840.00401" y="446.25437" width="114.65486" height="27.68073"/><rect x="954.65887" y="446.25437" width="114.65486" height="27.68073"/><rect x="1069.31373" y="446.25437" width="114.65486" height="27.68073"/></g><g stroke="#ffffff" stroke-width="2"><rect x="266.7297" y="472.9351" width="114.65486" height="27.68073" fill="#6bbcc0"/><rect x="381.38456" y="472.9351" width="114.65486" height="27.68073" fill="#2aa1a8"/><rect x="496.03942" y="472.9351" width="114.65486" height="27.68073" fill="#2aa1a8"/><rect x="610.69428" y="472.9351" width="114.65486" height="27.68073" fill="#39a7ae"/><rect x="725.34915" y="472.9351" width="114.65486" height="27.68073" fill="#2aa1a8"/><rect x="840.00401" y="472.9351" width="114.65486" height="27.68073" fill="#2aa1a8"/><rect x="954.65887" y="472.9351" width="114.65486" height="27.68073" fill="#2aa1a8"/><rect x="1069.31373" y="472.9351" width="114.65486" height="27.68073" fill="#2aa1a8"/></g><g stroke="#ffffff" stroke-width="2"><rect x="266.7297" y="499.61583" width="114.65486" height="27.68073" fill="#48adb3"/><rect x="381.38456" y="499.61583" width="114.65486" height="27.68073" fill="#2aa1a8"/><rect x="496.03942" y="499.61583" width="114.65486" height="27.68073" fill="#2aa1a8"/><rect x="610.69428" y="499.61583" width="114.65486" height="27.68073" fill="#2aa1a8"/><rect x="725.34915" y="499.61583" width="114.65486" height="27.68073" fill="#2aa1a8"/><rect x="840.00401" y="499.61583" width="114.65486" height="27.68073" fill="#2aa1a8"/><rect x="954.65887" y="499.61583" width="114.65486" height="27.68073" fill="#2aa1a8"/><rect x="1069.31373" y="499.61583" width="114.65486" height="27.68073" fill="#2aa1a8"/></g><g stroke="#ffffff" stroke-width="1.5"><rect x="265.47149" y="664.11809" width="114.96941" height="28.93895" fill="#f0bbb2"/><rect x="380.4409" y="664.11809" width="114.96941" height="28.93895" fill="#f2d6d1"/><rect x="495.41032" y="664.11809" width="114.96941" height="28.93895" fill="#f3eeed"/><rect x="610.37973" y="664.11809" width="114.96941" height="28.93895" fill="#f3eeed"/><rect x="725.34915" y="664.11809" width="114.96941" height="28.93895" fill="#f2e8e6"/><rect x="840.31856" y="664.11809" width="114.96941" height="28.93895" fill="#f2e4e2"/><rect x="955.28798" y="664.11809" width="114.96941" height="28.93895" fill="#f2e0dd"/><rect x="1070.25739" y="664.11809" width="114.96941" height="28.93895" fill="#f0b2a7"/></g><g stroke="#ffffff" stroke-width="1.5"><rect x="265.47149" y="693.05704" width="114.96941" height="28.93895" fill="#f0b8ae"/><rect x="380.4409" y="693.05704" width="114.96941" height="28.93895" fill="#f2d4cf"/><rect x="495.41032" y="693.05704" width="114.96941" height="28.93895" fill="#f3eeed"/><rect x="610.37973" y="693.05704" width="114.96941" height="28.93895" fill="#f3eeee"/><rect x="725.34915" y="693.05704" width="114.96941" height="28.93895" fill="#f3f0ef"/><rect x="840.31856" y="693.05704" width="114.96941" height="28.93895" fill="#f1cec8"/><rect x="955.28798" y="693.05704" width="114.96941" height="28.93895" fill="#f2d8d3"/><rect x="1070.25739" y="693.05704" width="114.96941" height="28.93895" fill="#efa093"/></g><g stroke="#ffffff" stroke-width="1.5"><rect x="265.47149" y="721.99599" width="114.96941" height="28.93895" fill="#f0b7ad"/><rect x="380.4409" y="721.99599" width="114.96941" height="28.93895" fill="#f2dad7"/><rect x="495.41032" y="721.99599" width="114.96941" height="28.93895" fill="#e0ebec"/><rect x="610.37973" y="721.99599" width="114.96941" height="28.93895" fill="#ebf0f0"/><rect x="725.34915" y="721.99599" width="114.96941" height="28.93895" fill="#f2d9d4"/><rect x="840.31856" y="721.99599" width="114.96941" height="28.93895" fill="#f2dbd8"/><rect x="955.28798" y="721.99599" width="114.96941" height="28.93895" fill="#f2e4e2"/><rect x="1070.25739" y="721.99599" width="114.96941" height="28.93895" fill="#f1c2ba"/></g><text x="1197.85134" y="684.34533" fill="#333333" stroke="none" stroke-width="1" font-family="Arial, sans-serif" font-weight="normal" font-size="16" text-anchor="start">Total</text><text x="1199.13555" y="713.88218" fill="#333333" stroke="none" stroke-width="1" font-family="Arial, sans-serif" font-weight="normal" font-size="16" text-anchor="start">Male</text><text x="1197.85134" y="740.85061" fill="#333333" stroke="none" stroke-width="1" font-family="Arial, sans-serif" font-weight="normal" font-size="16" text-anchor="start">Female</text><text x="1188.86186" y="225.88202" fill="#333333" stroke="none" stroke-width="1" font-family="Arial, sans-serif" font-weight="normal" font-size="16" text-anchor="start">15-19</text><text x="1188.86186" y="251.51272" fill="#333333" stroke="none" stroke-width="1" font-family="Arial, sans-serif" font-weight="normal" font-size="16" text-anchor="start">20-24</text><text x="1188.86186" y="278.48115" fill="#333333" stroke="none" stroke-width="1" font-family="Arial, sans-serif" font-weight="normal" font-size="16" text-anchor="start">25-29</text><text x="1188.86186" y="305.44958" fill="#333333" stroke="none" stroke-width="1" font-family="Arial, sans-serif" font-weight="normal" font-size="16" text-anchor="start">30-34</text><text x="1188.86186" y="333.70223" fill="#333333" stroke="none" stroke-width="1" font-family="Arial, sans-serif" font-weight="normal" font-size="16" text-anchor="start">35-39</text><text x="1188.86186" y="360.67066" fill="#333333" stroke="none" stroke-width="1" font-family="Arial, sans-serif" font-weight="normal" font-size="16" text-anchor="start">40-44</text><text x="1188.86186" y="386.35488" fill="#333333" stroke="none" stroke-width="1" font-family="Arial, sans-serif" font-weight="normal" font-size="16" text-anchor="start">45-49</text><text x="1188.86186" y="410.75488" fill="#333333" stroke="none" stroke-width="1" font-family="Arial, sans-serif" font-weight="normal" font-size="16" text-anchor="start">50-54</text><text x="1188.86186" y="439.00753" fill="#333333" stroke="none" stroke-width="1" font-family="Arial, sans-serif" font-weight="normal" font-size="16" text-anchor="start">55-59</text><text x="1188.86186" y="464.69174" fill="#333333" stroke="none" stroke-width="1" font-family="Arial, sans-serif" font-weight="normal" font-size="16" text-anchor="start">60-64</text><text x="1823.26208" y="599.5339" fill="#333333" stroke="none" stroke-width="1" font-family="Arial, sans-serif" font-weight="normal" font-size="12" text-anchor="start">text</text><text x="1188.86186" y="491.66017" fill="#333333" stroke="none" stroke-width="1" font-family="Arial, sans-serif" font-weight="normal" font-size="16" text-anchor="start">65-69</text><text x="1188.86186" y="517.34439" fill="#333333" stroke="none" stroke-width="1" font-family="Arial, sans-serif" font-weight="normal" font-size="16" text-anchor="start">70+</text></g><g transform="translate(1287.0338613444821,242.51218481068588)"><rect height="100" width="8" rx="0" ry="0" class="color-scale-gradient" style="fill: url(&quot;#gradient-Rectangle3660&quot;); pointer-events: none; stroke-width: 1;" stroke="#888"/><text class="color-scale-label" y="-14" dy="0.3em" fill="#444" style="font-size: 10px; font-family: Arial, sans-serif;">Value</text><g transform="translate(26,10.310118265440217)"><path d="M-14,12h6" fill="none" stroke="#888"/><text dy="0.3em" y="12" x="-6" fill="#444" style="font-size: 10px; font-family: Arial, sans-serif;">20</text><defs><linearGradient id="gradient-Rectangle3660" x1="0" y1="0" x2="0" y2="1"><stop offset="22.310118265440217%" stop-color="rgb(233, 34, 0)"/><stop offset="22.310118265440217%" stop-color="#e92200"/><stop offset="73.40078843626807%" stop-color="#f3f3f3"/><stop offset="88.53876478318003%" stop-color="#2aa1a8"/></linearGradient></defs></g><g transform="translate(26,10.310118265440217)"><path d="M-14,12h6" fill="none" stroke="#888"/><text dy="0.3em" y="12" x="-6" fill="#444" style="font-size: 10px; font-family: Arial, sans-serif;">20</text><defs/></g><g transform="translate(26,61.40078843626807)"><path d="M-14,12h6" fill="none" stroke="#888"/><text dy="0.3em" y="12" x="-6" fill="#444" style="font-size: 10px; font-family: Arial, sans-serif;">6.5</text><defs/></g><g transform="translate(26,76.53876478318003)"><path d="M-14,12h6" fill="none" stroke="#888"/><text dy="0.3em" y="12" x="-6" fill="#444" style="font-size: 10px; font-family: Arial, sans-serif;">2.5</text><defs/></g></g></g></svg>